<?xml version="1.0" standalone="no"?>
<!DOCTYPE svg PUBLIC "-//W3C//DTD SVG 20010904//EN"
 "http://www.w3.org/TR/2001/REC-SVG-20010904/DTD/svg10.dtd">
<svg version="1.0" xmlns="http://www.w3.org/2000/svg"
 width="700.000000pt" height="700.000000pt" viewBox="0 0 700.000000 700.000000"
 preserveAspectRatio="xMidYMid meet">
<metadata>
Created by potrace 1.11, written by Peter Selinger 2001-2013
</metadata>
<g transform="translate(0.000000,700.000000) scale(0.100000,-0.100000)"
fill="#000000" stroke="none">
<path d="M3030 5663 l0 -353 355 0 355 0 0 353 0 354 -355 0 -355 0 0 -354z"/>
<path d="M1278 5103 c-2 -5 -3 -163 -3 -353 l1 -345 348 0 c191 0 350 3 352 7
4 6 7 366 5 626 l-1 72 -349 0 c-193 0 -351 -3 -353 -7z"/>
<path d="M2169 5108 c-1 -2 -2 -158 -3 -346 0 -220 3 -346 9 -350 6 -4 164 -7
352 -7 l343 0 0 353 0 352 -350 0 c-192 0 -350 -1 -351 -2z"/>
<path d="M3030 4760 c0 -326 1 -350 18 -351 9 -1 169 -2 354 -3 l338 -1 0 353
0 352 -355 0 -355 0 0 -350z"/>
<path d="M5462 4630 c-53 -68 -97 -146 -133 -235 -12 -30 -40 -143 -47 -194
-8 -56 -8 -273 0 -321 19 -112 79 -271 128 -339 11 -16 20 -32 20 -36 0 -3
-35 -22 -77 -41 -43 -20 -91 -42 -108 -51 -81 -41 -250 -77 -420 -89 -49 -3
-1150 -7 -2445 -8 l-2355 -1 -11 -75 c-15 -104 -14 -374 2 -499 26 -196 89
-421 159 -561 120 -243 230 -396 407 -565 189 -182 404 -321 673 -436 161 -69
442 -143 625 -165 25 -3 56 -7 70 -9 131 -24 581 -24 810 -1 19 2 69 7 110 10
41 4 100 11 130 16 30 5 78 12 105 16 161 20 504 103 691 168 168 59 206 73
294 111 92 39 371 181 417 212 15 11 80 54 143 95 168 112 316 234 476 393
245 243 412 462 583 762 53 94 183 360 195 401 7 21 13 22 99 22 359 1 625 99
812 297 52 55 188 271 179 284 -2 4 -39 27 -82 51 -237 132 -450 160 -798 102
l-41 -6 -7 46 c-25 164 -141 371 -293 521 -64 64 -232 205 -243 205 -3 0 -33
-36 -68 -80z m-3915 -1971 c99 -38 191 -133 222 -231 17 -52 17 -156 1 -203
-109 -308 -513 -354 -693 -78 -27 42 -54 138 -51 180 7 106 39 179 104 244 51
51 83 70 152 93 82 28 182 25 265 -5z"/>
<path d="M411 4210 c-9 -19 -7 -678 2 -687 4 -3 163 -7 355 -7 l347 -1 -1 350
c-1 193 -2 352 -3 355 0 3 -157 5 -347 5 -298 0 -347 -2 -353 -15z"/>
<path d="M1279 4210 c-4 -83 -2 -674 3 -682 5 -9 478 -15 673 -9 l30 1 -1 345
c0 189 -4 348 -8 352 -4 4 -162 8 -352 8 -299 0 -344 -2 -345 -15z"/>
<path d="M2190 4222 l-25 -3 0 -345 c0 -245 4 -347 12 -352 8 -5 604 -8 681
-3 10 1 12 75 10 353 l-3 352 -325 1 c-179 0 -336 -1 -350 -3z"/>
<path d="M3034 4221 c-2 -2 -4 -161 -4 -353 0 -271 3 -348 13 -349 15 -1 679
-1 690 0 4 1 7 160 7 354 l0 352 -351 0 c-193 0 -353 -2 -355 -4z"/>
<path d="M3905 4220 c-1 -3 -3 -161 -3 -352 1 -287 3 -348 14 -349 8 0 166 -1
352 -1 l337 -1 0 354 0 354 -348 0 c-192 0 -350 -2 -352 -5z"/>
</g>
</svg>
